<svg xmlns="http://www.w3.org/2000/svg" xmlns:xlink="http://www.w3.org/1999/xlink" width="500" zoomAndPan="magnify" viewBox="0 0 375 374.999991" height="500" preserveAspectRatio="xMidYMid meet" version="1.0"><defs><linearGradient x1="0" gradientTransform="matrix(0.75, 0, 0, 0.75, 0.0000045, 0)" y1="250" x2="499.999979" gradientUnits="userSpaceOnUse" y2="250" id="be05bae4ff"><stop stop-opacity="1" stop-color="rgb(98.429871%, 54.119873%, 7.449341%)" offset="0"/><stop stop-opacity="1" stop-color="rgb(98.376465%, 53.965759%, 7.427979%)" offset="0.015625"/><stop stop-opacity="1" stop-color="rgb(98.272705%, 53.659058%, 7.385254%)" offset="0.03125"/><stop stop-opacity="1" stop-color="rgb(98.168945%, 53.352356%, 7.342529%)" offset="0.046875"/><stop stop-opacity="1" stop-color="rgb(98.06366%, 53.045654%, 7.299805%)" offset="0.0625"/><stop stop-opacity="1" stop-color="rgb(97.9599%, 52.740479%, 7.25708%)" offset="0.078125"/><stop stop-opacity="1" stop-color="rgb(97.85614%, 52.433777%, 7.214355%)" offset="0.09375"/><stop stop-opacity="1" stop-color="rgb(97.750854%, 52.127075%, 7.171631%)" offset="0.109375"/><stop stop-opacity="1" stop-color="rgb(97.647095%, 51.820374%, 7.12738%)" offset="0.125"/><stop stop-opacity="1" stop-color="rgb(97.543335%, 51.513672%, 7.084656%)" offset="0.140625"/><stop stop-opacity="1" stop-color="rgb(97.439575%, 51.208496%, 7.041931%)" offset="0.15625"/><stop stop-opacity="1" stop-color="rgb(97.33429%, 50.901794%, 6.999207%)" offset="0.171875"/><stop stop-opacity="1" stop-color="rgb(97.23053%, 50.595093%, 6.956482%)" offset="0.1875"/><stop stop-opacity="1" stop-color="rgb(97.12677%, 50.288391%, 6.913757%)" offset="0.203125"/><stop stop-opacity="1" stop-color="rgb(97.021484%, 49.981689%, 6.871033%)" offset="0.21875"/><stop stop-opacity="1" stop-color="rgb(96.917725%, 49.674988%, 6.828308%)" offset="0.234375"/><stop stop-opacity="1" stop-color="rgb(96.813965%, 49.369812%, 6.785583%)" offset="0.25"/><stop stop-opacity="1" stop-color="rgb(96.708679%, 49.06311%, 6.742859%)" offset="0.265625"/><stop stop-opacity="1" stop-color="rgb(96.604919%, 48.756409%, 6.700134%)" offset="0.28125"/><stop stop-opacity="1" stop-color="rgb(96.50116%, 48.449707%, 6.65741%)" offset="0.296875"/><stop stop-opacity="1" stop-color="rgb(96.3974%, 48.143005%, 6.614685%)" offset="0.3125"/><stop stop-opacity="1" stop-color="rgb(96.292114%, 47.83783%, 6.57196%)" offset="0.328125"/><stop stop-opacity="1" stop-color="rgb(96.188354%, 47.531128%, 6.529236%)" offset="0.34375"/><stop stop-opacity="1" stop-color="rgb(96.084595%, 47.224426%, 6.486511%)" offset="0.359375"/><stop stop-opacity="1" stop-color="rgb(95.979309%, 46.917725%, 6.443787%)" offset="0.375"/><stop stop-opacity="1" stop-color="rgb(95.875549%, 46.611023%, 6.399536%)" offset="0.390625"/><stop stop-opacity="1" stop-color="rgb(95.77179%, 46.305847%, 6.356812%)" offset="0.40625"/><stop stop-opacity="1" stop-color="rgb(95.666504%, 45.999146%, 6.314087%)" offset="0.421875"/><stop stop-opacity="1" stop-color="rgb(95.562744%, 45.692444%, 6.271362%)" offset="0.4375"/><stop stop-opacity="1" stop-color="rgb(95.458984%, 45.385742%, 6.228638%)" offset="0.453125"/><stop stop-opacity="1" stop-color="rgb(95.355225%, 45.079041%, 6.185913%)" offset="0.46875"/><stop stop-opacity="1" stop-color="rgb(95.249939%, 44.773865%, 6.143188%)" offset="0.484375"/><stop stop-opacity="1" stop-color="rgb(95.146179%, 44.467163%, 6.100464%)" offset="0.5"/><stop stop-opacity="1" stop-color="rgb(95.042419%, 44.160461%, 6.057739%)" offset="0.515625"/><stop stop-opacity="1" stop-color="rgb(94.937134%, 43.85376%, 6.015015%)" offset="0.53125"/><stop stop-opacity="1" stop-color="rgb(94.833374%, 43.547058%, 5.97229%)" offset="0.546875"/><stop stop-opacity="1" stop-color="rgb(94.729614%, 43.241882%, 5.929565%)" offset="0.5625"/><stop stop-opacity="1" stop-color="rgb(94.624329%, 42.935181%, 5.886841%)" offset="0.578125"/><stop stop-opacity="1" stop-color="rgb(94.520569%, 42.628479%, 5.844116%)" offset="0.59375"/><stop stop-opacity="1" stop-color="rgb(94.416809%, 42.321777%, 5.801392%)" offset="0.609375"/><stop stop-opacity="1" stop-color="rgb(94.313049%, 42.015076%, 5.758667%)" offset="0.625"/><stop stop-opacity="1" stop-color="rgb(94.207764%, 41.7099%, 5.715942%)" offset="0.640625"/><stop stop-opacity="1" stop-color="rgb(94.104004%, 41.403198%, 5.673218%)" offset="0.65625"/><stop stop-opacity="1" stop-color="rgb(94.000244%, 41.096497%, 5.628967%)" offset="0.671875"/><stop stop-opacity="1" stop-color="rgb(93.894958%, 40.789795%, 5.586243%)" offset="0.6875"/><stop stop-opacity="1" stop-color="rgb(93.791199%, 40.483093%, 5.543518%)" offset="0.703125"/><stop stop-opacity="1" stop-color="rgb(93.687439%, 40.176392%, 5.500793%)" offset="0.71875"/><stop stop-opacity="1" stop-color="rgb(93.582153%, 39.871216%, 5.458069%)" offset="0.734375"/><stop stop-opacity="1" stop-color="rgb(93.478394%, 39.564514%, 5.415344%)" offset="0.75"/><stop stop-opacity="1" stop-color="rgb(93.374634%, 39.257812%, 5.37262%)" offset="0.765625"/><stop stop-opacity="1" stop-color="rgb(93.270874%, 38.951111%, 5.329895%)" offset="0.78125"/><stop stop-opacity="1" stop-color="rgb(93.165588%, 38.644409%, 5.28717%)" offset="0.796875"/><stop stop-opacity="1" stop-color="rgb(93.061829%, 38.339233%, 5.244446%)" offset="0.8125"/><stop stop-opacity="1" stop-color="rgb(92.958069%, 38.032532%, 5.201721%)" offset="0.828125"/><stop stop-opacity="1" stop-color="rgb(92.852783%, 37.72583%, 5.158997%)" offset="0.84375"/><stop stop-opacity="1" stop-color="rgb(92.749023%, 37.419128%, 5.116272%)" offset="0.859375"/><stop stop-opacity="1" stop-color="rgb(92.645264%, 37.112427%, 5.073547%)" offset="0.875"/><stop stop-opacity="1" stop-color="rgb(92.539978%, 36.807251%, 5.030823%)" offset="0.890625"/><stop stop-opacity="1" stop-color="rgb(92.436218%, 36.500549%, 4.988098%)" offset="0.90625"/><stop stop-opacity="1" stop-color="rgb(92.332458%, 36.193848%, 4.945374%)" offset="0.921875"/><stop stop-opacity="1" stop-color="rgb(92.228699%, 35.887146%, 4.901123%)" offset="0.9375"/><stop stop-opacity="1" stop-color="rgb(92.123413%, 35.580444%, 4.858398%)" offset="0.953125"/><stop stop-opacity="1" stop-color="rgb(92.019653%, 35.275269%, 4.815674%)" offset="0.96875"/><stop stop-opacity="1" stop-color="rgb(91.915894%, 34.968567%, 4.772949%)" offset="0.984375"/><stop stop-opacity="1" stop-color="rgb(91.810608%, 34.661865%, 4.730225%)" offset="1"/></linearGradient></defs><rect x="-37.5" width="450" fill="#ffffff" y="-37.499999" height="449.999989" fill-opacity="1"/><rect x="-37.5" fill="url(#be05bae4ff)" width="450" y="-37.499999" height="449.999989"/><path stroke-linecap="round" transform="matrix(12.499999, 0, 0, 12.499999, 37.500002, 37.499998)" fill="none" stroke-linejoin="round" d="M 18.000001 11.000001 L 18.000001 6.000001 C 18.000001 5.934376 17.996876 5.869063 17.990314 5.804063 C 17.984064 5.738751 17.974376 5.674063 17.961564 5.609688 C 17.948751 5.545626 17.932814 5.482188 17.913751 5.419376 C 17.895001 5.356876 17.872814 5.295001 17.847814 5.234688 C 17.822814 5.174063 17.794689 5.115001 17.763751 5.057188 C 17.732814 4.999376 17.699376 4.943438 17.662814 4.888751 C 17.626564 4.834376 17.587501 4.781876 17.545939 4.731251 C 17.504376 4.680626 17.460626 4.632188 17.414064 4.585938 C 17.367814 4.539376 17.319376 4.495626 17.268751 4.454063 C 17.218126 4.412501 17.165626 4.373438 17.111251 4.337188 C 17.056564 4.300626 17.000626 4.267188 16.942814 4.236251 C 16.885001 4.205313 16.825939 4.177188 16.765314 4.152188 C 16.705001 4.127188 16.643126 4.105001 16.580626 4.086251 C 16.517814 4.067188 16.454376 4.051251 16.390314 4.038438 C 16.325939 4.025626 16.261251 4.015938 16.195939 4.009688 C 16.130939 4.003126 16.065626 4.000001 16.000001 4.000001 C 15.934376 4.000001 15.869064 4.003126 15.804064 4.009688 C 15.738751 4.015938 15.674064 4.025626 15.609689 4.038438 C 15.545626 4.051251 15.482189 4.067188 15.419376 4.086251 C 15.356876 4.105001 15.295001 4.127188 15.234689 4.152188 C 15.174064 4.177188 15.115001 4.205313 15.057189 4.236251 C 14.999376 4.267188 14.943439 4.300626 14.888751 4.337188 C 14.834376 4.373438 14.781876 4.412501 14.731251 4.454063 C 14.680626 4.495626 14.632189 4.539376 14.585939 4.585938 C 14.539376 4.632188 14.495626 4.680626 14.454064 4.731251 C 14.412501 4.781876 14.373439 4.834376 14.337189 4.888751 C 14.300626 4.943438 14.267189 4.999376 14.236251 5.057188 C 14.205314 5.115001 14.177189 5.174063 14.152189 5.234688 C 14.127189 5.295001 14.105001 5.356876 14.086251 5.419376 C 14.067189 5.482188 14.051251 5.545626 14.038439 5.609688 C 14.025626 5.674063 14.015939 5.738751 14.009689 5.804063 C 14.003126 5.869063 14.000001 5.934376 14.000001 6.000001 " stroke="#ffffff" stroke-width="2" stroke-opacity="1" stroke-miterlimit="4"/><path stroke-linecap="round" transform="matrix(12.499999, 0, 0, 12.499999, 37.500002, 37.499998)" fill="none" stroke-linejoin="round" d="M 14.000001 10.000001 L 14.000001 4.000001 C 14.000001 3.934376 13.996876 3.869063 13.990314 3.804063 C 13.984064 3.738751 13.974376 3.674063 13.961564 3.609688 C 13.948751 3.545626 13.932814 3.482188 13.913751 3.419376 C 13.895001 3.356876 13.872814 3.295 13.847814 3.234688 C 13.822814 3.174063 13.794689 3.115 13.763751 3.057188 C 13.732814 2.999375 13.699376 2.943438 13.662814 2.88875 C 13.626564 2.834375 13.587501 2.781875 13.545939 2.73125 C 13.504376 2.680625 13.460626 2.632188 13.414064 2.585938 C 13.367814 2.539375 13.319376 2.495625 13.268751 2.454063 C 13.218126 2.4125 13.165626 2.373438 13.111251 2.337188 C 13.056564 2.300625 13.000626 2.267188 12.942814 2.23625 C 12.885001 2.205313 12.825939 2.177188 12.765314 2.152188 C 12.705001 2.127188 12.643126 2.105 12.580626 2.08625 C 12.517813 2.067188 12.454376 2.05125 12.390313 2.038438 C 12.325938 2.025625 12.261251 2.015938 12.195938 2.009688 C 12.130938 2.003125 12.065626 2 12.000001 2 C 11.934376 2 11.869063 2.003125 11.804063 2.009688 C 11.738751 2.015938 11.674063 2.025625 11.609688 2.038438 C 11.545626 2.05125 11.482188 2.067188 11.419376 2.08625 C 11.356876 2.105 11.295001 2.127188 11.234688 2.152188 C 11.174063 2.177188 11.115001 2.205313 11.057188 2.23625 C 10.999376 2.267188 10.943438 2.300625 10.888751 2.337188 C 10.834376 2.373438 10.781876 2.4125 10.731251 2.454063 C 10.680626 2.495625 10.632188 2.539375 10.585938 2.585938 C 10.539376 2.632188 10.495626 2.680625 10.454063 2.73125 C 10.412501 2.781875 10.373438 2.834375 10.337188 2.88875 C 10.300626 2.943438 10.267188 2.999375 10.236251 3.057188 C 10.205313 3.115 10.177188 3.174063 10.152188 3.234688 C 10.127188 3.295 10.105001 3.356876 10.086251 3.419376 C 10.067188 3.482188 10.051251 3.545626 10.038438 3.609688 C 10.025626 3.674063 10.015938 3.738751 10.009688 3.804063 C 10.003126 3.869063 10.000001 3.934376 10.000001 4.000001 L 10.000001 6.000001 " stroke="#ffffff" stroke-width="2" stroke-opacity="1" stroke-miterlimit="4"/><path stroke-linecap="round" transform="matrix(12.499999, 0, 0, 12.499999, 37.500002, 37.499998)" fill="none" stroke-linejoin="round" d="M 10.000001 10.500001 L 10.000001 6.000001 C 10.000001 5.934376 9.996876 5.869063 9.990313 5.804063 C 9.984063 5.738751 9.974376 5.674063 9.961563 5.609688 C 9.948751 5.545626 9.932813 5.482188 9.913751 5.419376 C 9.895001 5.356876 9.872813 5.295001 9.847813 5.234688 C 9.822813 5.174063 9.794688 5.115001 9.763751 5.057188 C 9.732813 4.999376 9.699376 4.943438 9.662813 4.888751 C 9.626563 4.834376 9.587501 4.781876 9.545938 4.731251 C 9.504376 4.680626 9.460626 4.632188 9.414063 4.585938 C 9.367813 4.539376 9.319376 4.495626 9.268751 4.454063 C 9.218126 4.412501 9.165626 4.373438 9.111251 4.337188 C 9.056563 4.300626 9.000626 4.267188 8.942813 4.236251 C 8.885001 4.205313 8.825938 4.177188 8.765313 4.152188 C 8.705001 4.127188 8.643126 4.105001 8.580626 4.086251 C 8.517813 4.067188 8.454376 4.051251 8.390313 4.038438 C 8.325938 4.025626 8.261251 4.015938 8.195938 4.009688 C 8.130938 4.003126 8.065626 4.000001 8.000001 4.000001 C 7.934376 4.000001 7.869063 4.003126 7.804063 4.009688 C 7.738751 4.015938 7.674063 4.025626 7.609688 4.038438 C 7.545626 4.051251 7.482188 4.067188 7.419376 4.086251 C 7.356876 4.105001 7.295001 4.127188 7.234688 4.152188 C 7.174063 4.177188 7.115 4.205313 7.057188 4.236251 C 6.999375 4.267188 6.943438 4.300626 6.88875 4.337188 C 6.834375 4.373438 6.781875 4.412501 6.73125 4.454063 C 6.680625 4.495626 6.632188 4.539376 6.585938 4.585938 C 6.539375 4.632188 6.495625 4.680626 6.454063 4.731251 C 6.4125 4.781876 6.373438 4.834376 6.337188 4.888751 C 6.300625 4.943438 6.267188 4.999376 6.23625 5.057188 C 6.205313 5.115001 6.177188 5.174063 6.152188 5.234688 C 6.127188 5.295001 6.105 5.356876 6.08625 5.419376 C 6.067188 5.482188 6.05125 5.545626 6.038438 5.609688 C 6.025625 5.674063 6.015938 5.738751 6.009688 5.804063 C 6.003125 5.869063 6 5.934376 6 6.000001 L 6 14.000001 " stroke="#ffffff" stroke-width="2" stroke-opacity="1" stroke-miterlimit="4"/><path stroke-linecap="round" transform="matrix(12.499999, 0, 0, 12.499999, 37.500002, 37.499998)" fill="none" stroke-linejoin="round" d="M 18.000001 8.000001 C 18.000001 7.934376 18.003126 7.869063 18.009689 7.804063 C 18.015939 7.738751 18.025626 7.674063 18.038439 7.609688 C 18.051251 7.545626 18.067189 7.482188 18.086251 7.419376 C 18.105001 7.356876 18.127189 7.295001 18.152189 7.234688 C 18.177189 7.174063 18.205314 7.115001 18.236252 7.057188 C 18.267189 6.999376 18.300627 6.943438 18.337189 6.888751 C 18.373439 6.834376 18.412502 6.781876 18.454064 6.731251 C 18.495627 6.680626 18.539377 6.632188 18.585939 6.585938 C 18.632189 6.539376 18.680627 6.495626 18.731252 6.454063 C 18.781877 6.412501 18.834377 6.373438 18.888752 6.337188 C 18.943439 6.300626 18.999377 6.267188 19.057189 6.236251 C 19.115002 6.205313 19.174064 6.177188 19.234689 6.152188 C 19.295002 6.127188 19.356877 6.105001 19.419377 6.086251 C 19.482189 6.067188 19.545627 6.051251 19.609689 6.038438 C 19.674064 6.025626 19.738752 6.015938 19.804064 6.009688 C 19.869064 6.003126 19.934377 6.000001 20.000002 6.000001 C 20.065627 6.000001 20.130939 6.003126 20.195939 6.009688 C 20.261252 6.015938 20.325939 6.025626 20.390314 6.038438 C 20.454377 6.051251 20.517814 6.067188 20.580627 6.086251 C 20.643127 6.105001 20.705002 6.127188 20.765314 6.152188 C 20.825939 6.177188 20.885002 6.205313 20.942814 6.236251 C 21.000627 6.267188 21.056564 6.300626 21.111252 6.337188 C 21.165627 6.373438 21.218127 6.412501 21.268752 6.454063 C 21.319377 6.495626 21.367814 6.539376 21.414064 6.585938 C 21.460627 6.632188 21.504377 6.680626 21.545939 6.731251 C 21.587502 6.781876 21.626564 6.834376 21.662814 6.888751 C 21.699377 6.943438 21.732814 6.999376 21.763752 7.057188 C 21.794689 7.115001 21.822814 7.174063 21.847814 7.234688 C 21.872814 7.295001 21.895002 7.356876 21.913752 7.419376 C 21.932814 7.482188 21.948752 7.545626 21.961564 7.609688 C 21.974377 7.674063 21.984064 7.738751 21.990314 7.804063 C 21.996877 7.869063 22.000002 7.934376 22.000002 8.000001 L 22.000002 14.000001 C 22.000002 14.130939 21.996877 14.261876 21.990314 14.392502 C 21.984064 14.523439 21.974377 14.653752 21.961564 14.784064 C 21.948752 14.914377 21.932502 15.044377 21.913439 15.173752 C 21.894064 15.303439 21.871877 15.432189 21.846252 15.560627 C 21.820627 15.689064 21.792189 15.816877 21.760314 15.943752 C 21.728439 16.070939 21.693439 16.196877 21.655627 16.322189 C 21.617502 16.447502 21.576564 16.571877 21.532502 16.695002 C 21.488127 16.818439 21.441252 16.940627 21.390939 17.061564 C 21.340939 17.182502 21.287814 17.302189 21.231877 17.420314 C 21.175939 17.538752 21.117189 17.655627 21.055314 17.771252 C 20.993752 17.886564 20.929064 18.000627 20.861877 18.112814 C 20.794377 18.225002 20.724377 18.335627 20.651877 18.444689 C 20.579064 18.553439 20.503752 18.660314 20.425627 18.765627 C 20.347814 18.870627 20.267189 18.974064 20.184064 19.075002 C 20.100939 19.176252 20.015627 19.275314 19.927502 19.372502 C 19.839689 19.469377 19.749377 19.564377 19.656877 19.656877 C 19.564377 19.749377 19.469377 19.83969 19.372502 19.927502 C 19.275314 20.015627 19.176252 20.10094 19.075002 20.184065 C 18.974064 20.26719 18.870627 20.347815 18.765627 20.425627 C 18.660314 20.503752 18.553439 20.579065 18.444689 20.651877 C 18.335627 20.724377 18.225002 20.794377 18.112814 20.861877 C 18.000626 20.929065 17.886564 20.993752 17.771251 21.055315 C 17.655626 21.11719 17.538751 21.17594 17.420314 21.231877 C 17.302189 21.287815 17.182501 21.34094 17.061564 21.39094 C 16.940626 21.441252 16.818439 21.488127 16.695001 21.532502 C 16.571876 21.576565 16.447501 21.617502 16.322189 21.655627 C 16.196876 21.69344 16.070939 21.72844 15.943751 21.760315 C 15.816876 21.79219 15.689064 21.820627 15.560626 21.846252 C 15.432189 21.871877 15.303439 21.894065 15.173751 21.91344 C 15.044376 21.932502 14.914376 21.948752 14.784064 21.961565 C 14.653751 21.974377 14.523439 21.984065 14.392501 21.990315 C 14.261876 21.996877 14.130939 22.000002 14.000001 22.000002 L 12.000001 22.000002 C 9.200001 22.000002 7.500001 21.140002 6.01 19.660002 L 2.41 16.060002 C 2.3675 16.012814 2.327188 15.963752 2.289375 15.913127 C 2.251563 15.862189 2.21625 15.809377 2.183438 15.755314 C 2.150625 15.700939 2.120313 15.645314 2.092813 15.588127 C 2.065313 15.530939 2.040313 15.472502 2.018438 15.413127 C 1.996563 15.353439 1.9775 15.293127 1.96125 15.231877 C 1.945 15.170314 1.931563 15.108439 1.92125 15.045939 C 1.910938 14.983127 1.903438 14.920314 1.899063 14.856877 C 1.894688 14.793752 1.893438 14.730314 1.895 14.666877 C 1.896875 14.603439 1.901563 14.540314 1.909063 14.477189 C 1.916875 14.414377 1.9275 14.351877 1.94125 14.290002 C 1.954688 14.227814 1.97125 14.166876 1.990938 14.106251 C 2.010313 14.045939 2.0325 13.986564 2.0575 13.928439 C 2.082813 13.870001 2.110625 13.813126 2.140938 13.757501 C 2.171563 13.701876 2.204688 13.647814 2.240313 13.595314 C 2.275938 13.542814 2.314063 13.492189 2.354688 13.443439 C 2.395 13.394689 2.437813 13.347814 2.482813 13.302814 C 2.527813 13.258126 2.574688 13.215626 2.62375 13.175314 C 2.6725 13.135001 2.723438 13.097189 2.775938 13.061564 C 2.82875 13.026251 2.882813 12.993126 2.938438 12.962814 C 2.994375 12.932501 3.05125 12.905001 3.109688 12.880001 C 3.168125 12.855314 3.2275 12.833126 3.287813 12.813751 C 3.348438 12.794689 3.409688 12.778439 3.471563 12.765001 C 3.53375 12.751564 3.59625 12.740939 3.659063 12.733439 C 3.722188 12.726251 3.785313 12.721564 3.84875 12.720314 C 3.912188 12.718751 3.975625 12.720314 4.03875 12.725001 C 4.102188 12.729376 4.165 12.737189 4.2275 12.747501 C 4.290313 12.758126 4.352188 12.771564 4.413438 12.788126 C 4.474688 12.804689 4.535 12.824064 4.594375 12.846251 C 4.65375 12.868439 4.712188 12.893439 4.769063 12.921251 C 4.82625 12.948751 4.881875 12.979376 4.935938 13.012189 C 4.990313 13.045314 5.0425 13.080939 5.093438 13.119064 C 5.144063 13.156876 5.193125 13.197189 5.24 13.240001 L 7 15.000002 " stroke="#ffffff" stroke-width="2" stroke-opacity="1" stroke-miterlimit="4"/></svg>